<?xml version="1.0" standalone="no"?>
<!DOCTYPE svg PUBLIC "-//W3C//DTD SVG 20010904//EN"
 "http://www.w3.org/TR/2001/REC-SVG-20010904/DTD/svg10.dtd">
<svg version="1.0" xmlns="http://www.w3.org/2000/svg"
 width="350.000000pt" height="350.000000pt" viewBox="0 0 350.000000 350.000000"
 preserveAspectRatio="xMidYMid meet">
<metadata>
Created by potrace 1.11, written by Peter Selinger 2001-2013
</metadata>
<g transform="translate(0.000000,350.000000) scale(0.100000,-0.100000)"
fill="#000000" stroke="none">
<path d="M895 3489 c-141 -21 -306 -85 -428 -166 -147 -97 -300 -279 -372
-438 -23 -51 -55 -143 -56 -160 0 -2 -5 -19 -10 -37 -5 -18 -13 -53 -17 -78
-9 -58 -9 -1649 0 -1715 56 -403 364 -748 768 -859 30 -9 69 -19 85 -23 17 -4
404 -8 860 -10 839 -3 843 -2 990 31 52 11 157 53 225 89 290 155 485 425 545
757 11 59 14 242 14 865 0 435 -5 819 -10 855 -30 215 -143 436 -303 595 -137
136 -278 216 -481 274 l-90 25 -830 2 c-456 1 -857 -2 -890 -7z m1684 -505
c196 -45 360 -209 406 -406 22 -95 22 -1563 0 -1657 -36 -151 -150 -294 -292
-366 -111 -55 -110 -55 -968 -52 l-790 2 -64 23 c-122 44 -223 128 -294 244
-76 125 -71 72 -74 953 -1 484 1 809 7 840 26 130 138 286 258 357 53 32 134
62 192 71 14 3 369 5 790 5 647 1 775 -1 829 -14z"/>
</g>
</svg>
